User Type,Username,Date,Text
,his08,2011-06-11T05:01Z,"Thanks ""claudiatannahill"" for this torrent, The Audio/Video quality is perfect. I would rate 10/10. This is the best quality on the net. The details are:
Video 
ID : 1 
Format : AVC 
Format/Info : Advanced Video Codec 
Format profile : Main@L3.0 
Format settings, CABAC : Yes 
Format settings, ReFrames : 4 frames 
Codec ID : avc1 
Codec ID/Info : Advanced Video Coding 
Duration : 42mn 57s 
Bit rate mode : Variable 
Bit rate : 2 078 Kbps 
Nominal bit rate : 2 115 Kbps 
Width : 720 pixels 
Height : 480 pixels 
Display aspect ratio : 4:3 
Original display aspect ratio : 4:3 
Frame rate mode : Constant 
Frame rate : 29.970 fps 
Standard : NTSC 
Resolution : 24 bits 
Colorimetry : 4:2:0 
Scan type : Progressive 
Bits/(Pixel*Frame) : 0.201 
Stream size : 638 MiB (92%) 

Audio 
ID : 2 
Format : AAC 
Format/Info : Advanced Audio Codec 
Format version : Version 4 
Format profile : LC 
Format settings, SBR : No 
Codec ID : 40 
Duration : 42mn 57s 
Bit rate mode : Variable 
Bit rate : 165 Kbps 
Maximum bit rate : 258 Kbps 
Channel(s) : 2 channels 
Channel positions : L R 
Sampling rate : 48.0 KHz 
Resolution : 16 bits 
Stream size : 50.6 MiB (7%) 
Language : English 

 Please upload Sinbad Season 2 in this quality."
,chaybear,2012-04-07T18:45Z,Need seeds please! 
,DerLeitende,2012-06-14T11:58Z,"Hi:)
Would really appreciate some more seeding, please.
I will seed as long as I can when I am finished. I am really looking forward to see this show again:)
Thanks in advance:)"
